<?xml version="1.0" encoding="UTF-8" standalone="no"?>
<svg xmlns="http://www.w3.org/2000/svg" width="5120" height="4096" viewBox="0 0 5120 4096" version="1.1">
<rect x="0" y="0" width="5120" height="4096" fill="none"/>
<g transform="translate(0.00 0.00)">
<polygon points="512.00,434.00 802.00,512.00 512.00,590.00 222.00,512.00" fill="#050713" opacity="0.920" stroke="#00F2FF" stroke-width="14.00" stroke-linejoin="round" stroke-linecap="round" />
<line x1="212.00" y1="512.00" x2="812.00" y2="512.00" stroke="#00F2FF" stroke-width="76.80" opacity="0.160" stroke-linecap="round"/>
<line x1="212.00" y1="512.00" x2="812.00" y2="512.00" stroke="#00F2FF" stroke-width="24.00" opacity="0.920" stroke-linecap="round"/>
<line x1="212.00" y1="512.00" x2="812.00" y2="512.00" stroke="#F7FFFF" stroke-width="7.68" opacity="0.920" stroke-linecap="round"/>
<line x1="392.00" y1="442.00" x2="682.00" y2="442.00" stroke="#FF16D4" stroke-width="28.80" opacity="0.160" stroke-linecap="round"/>
<line x1="392.00" y1="442.00" x2="682.00" y2="442.00" stroke="#FF16D4" stroke-width="9.00" opacity="0.920" stroke-linecap="round"/>
<line x1="392.00" y1="442.00" x2="682.00" y2="442.00" stroke="#F7FFFF" stroke-width="2.88" opacity="0.920" stroke-linecap="round"/>
</g>
<g transform="translate(1024.00 0.00)">
<ellipse cx="512.00" cy="512.00" rx="320.00" ry="118.00" fill="none" opacity="0.640" stroke="#00F2FF" stroke-width="18.00" transform="rotate(-18.00 512.00 512.00)"/>
<circle cx="682.00" cy="460.00" r="70.00" fill="#F7FFFF" opacity="0.960" stroke="#00F2FF" stroke-width="8.00"/>
<circle cx="357.00" cy="570.00" r="48.00" fill="#FF16D4" opacity="0.900" stroke="#F7FFFF" stroke-width="5.00"/>
</g>
<g transform="translate(2048.00 0.00)">
<circle cx="512.00" cy="512.00" r="80.00" fill="#F7FFFF" opacity="0.860" stroke="#00F2FF" stroke-width="8.00"/>
<circle cx="512.00" cy="512.00" r="190.00" fill="none" opacity="0.580" stroke="#00F2FF" stroke-width="20.00"/>
<circle cx="512.00" cy="512.00" r="310.00" fill="none" opacity="0.420" stroke="#FF16D4" stroke-width="12.00"/>
</g>
<g transform="translate(3072.00 0.00)">
<line x1="182.00" y1="412.00" x2="382.00" y2="607.00" stroke="#00F2FF" stroke-width="70.40" opacity="0.160" stroke-linecap="round"/>
<line x1="182.00" y1="412.00" x2="382.00" y2="607.00" stroke="#00F2FF" stroke-width="22.00" opacity="0.920" stroke-linecap="round"/>
<line x1="182.00" y1="412.00" x2="382.00" y2="607.00" stroke="#F7FFFF" stroke-width="7.04" opacity="0.920" stroke-linecap="round"/>
<line x1="382.00" y1="607.00" x2="532.00" y2="457.00" stroke="#00F2FF" stroke-width="70.40" opacity="0.160" stroke-linecap="round"/>
<line x1="382.00" y1="607.00" x2="532.00" y2="457.00" stroke="#00F2FF" stroke-width="22.00" opacity="0.920" stroke-linecap="round"/>
<line x1="382.00" y1="607.00" x2="532.00" y2="457.00" stroke="#F7FFFF" stroke-width="7.04" opacity="0.920" stroke-linecap="round"/>
<line x1="532.00" y1="457.00" x2="822.00" y2="632.00" stroke="#00F2FF" stroke-width="70.40" opacity="0.160" stroke-linecap="round"/>
<line x1="532.00" y1="457.00" x2="822.00" y2="632.00" stroke="#00F2FF" stroke-width="22.00" opacity="0.920" stroke-linecap="round"/>
<line x1="532.00" y1="457.00" x2="822.00" y2="632.00" stroke="#F7FFFF" stroke-width="7.04" opacity="0.920" stroke-linecap="round"/>
<circle cx="182.00" cy="412.00" r="42.00" fill="#F7FFFF" opacity="0.950" stroke="#00F2FF" stroke-width="6.00"/>
<circle cx="382.00" cy="607.00" r="42.00" fill="#F7FFFF" opacity="0.950" stroke="#00F2FF" stroke-width="6.00"/>
<circle cx="532.00" cy="457.00" r="42.00" fill="#F7FFFF" opacity="0.950" stroke="#00F2FF" stroke-width="6.00"/>
<circle cx="822.00" cy="632.00" r="42.00" fill="#F7FFFF" opacity="0.950" stroke="#00F2FF" stroke-width="6.00"/>
</g>
<g transform="translate(4096.00 0.00)">
<circle cx="512.00" cy="512.00" r="82.00" fill="#F7FFFF" opacity="0.950" stroke="#9854FF" stroke-width="8.00"/>
<circle cx="512.00" cy="512.00" r="200.00" fill="none" opacity="0.600" stroke="#FF16D4" stroke-width="20.00"/>
<ellipse cx="512.00" cy="512.00" rx="305.00" ry="92.00" fill="none" opacity="0.480" stroke="#00F2FF" stroke-width="12.00" transform="rotate(28.00 512.00 512.00)"/>
</g>
<g transform="translate(0.00 1024.00)">
<polygon points="162.00,457.00 662.00,457.00 812.00,512.00 662.00,567.00 162.00,567.00" fill="#050713" opacity="0.950" stroke="#9854FF" stroke-width="12.00" stroke-linejoin="round" stroke-linecap="round" />
<line x1="202.00" y1="512.00" x2="792.00" y2="512.00" stroke="#FF16D4" stroke-width="57.60" opacity="0.160" stroke-linecap="round"/>
<line x1="202.00" y1="512.00" x2="792.00" y2="512.00" stroke="#FF16D4" stroke-width="18.00" opacity="0.920" stroke-linecap="round"/>
<line x1="202.00" y1="512.00" x2="792.00" y2="512.00" stroke="#F7FFFF" stroke-width="5.76" opacity="0.920" stroke-linecap="round"/>
<line x1="302.00" y1="420.00" x2="627.00" y2="420.00" stroke="#00F2FF" stroke-width="22.40" opacity="0.160" stroke-linecap="round"/>
<line x1="302.00" y1="420.00" x2="627.00" y2="420.00" stroke="#00F2FF" stroke-width="7.00" opacity="0.920" stroke-linecap="round"/>
<line x1="302.00" y1="420.00" x2="627.00" y2="420.00" stroke="#F7FFFF" stroke-width="2.24" opacity="0.920" stroke-linecap="round"/>
</g>
<g transform="translate(1024.00 1024.00)">
<circle cx="512.00" cy="512.00" r="245.00" fill="none" opacity="0.780" stroke="#00F2FF" stroke-width="28.00"/>
<circle cx="512.00" cy="512.00" r="165.00" fill="none" opacity="0.660" stroke="#F7FFFF" stroke-width="9.00"/>
<polygon points="755.24,482.67 847.00,512.00 755.24,541.33" fill="#050713" opacity="0.880" stroke="#FF16D4" stroke-width="5.00" stroke-linejoin="round" stroke-linecap="round" />
<polygon points="737.32,608.22 802.12,679.50 707.99,659.02" fill="#050713" opacity="0.880" stroke="#FF16D4" stroke-width="5.00" stroke-linejoin="round" stroke-linecap="round" />
<polygon points="659.02,707.99 679.50,802.12 608.22,737.32" fill="#050713" opacity="0.880" stroke="#FF16D4" stroke-width="5.00" stroke-linejoin="round" stroke-linecap="round" />
<polygon points="541.33,755.24 512.00,847.00 482.67,755.24" fill="#050713" opacity="0.880" stroke="#FF16D4" stroke-width="5.00" stroke-linejoin="round" stroke-linecap="round" />
<polygon points="415.78,737.32 344.50,802.12 364.98,707.99" fill="#050713" opacity="0.880" stroke="#FF16D4" stroke-width="5.00" stroke-linejoin="round" stroke-linecap="round" />
<polygon points="316.01,659.02 221.88,679.50 286.68,608.22" fill="#050713" opacity="0.880" stroke="#FF16D4" stroke-width="5.00" stroke-linejoin="round" stroke-linecap="round" />
<polygon points="268.76,541.33 177.00,512.00 268.76,482.67" fill="#050713" opacity="0.880" stroke="#FF16D4" stroke-width="5.00" stroke-linejoin="round" stroke-linecap="round" />
<polygon points="286.68,415.78 221.88,344.50 316.01,364.98" fill="#050713" opacity="0.880" stroke="#FF16D4" stroke-width="5.00" stroke-linejoin="round" stroke-linecap="round" />
<polygon points="364.98,316.01 344.50,221.88 415.78,286.68" fill="#050713" opacity="0.880" stroke="#FF16D4" stroke-width="5.00" stroke-linejoin="round" stroke-linecap="round" />
<polygon points="482.67,268.76 512.00,177.00 541.33,268.76" fill="#050713" opacity="0.880" stroke="#FF16D4" stroke-width="5.00" stroke-linejoin="round" stroke-linecap="round" />
<polygon points="608.22,286.68 679.50,221.88 659.02,316.01" fill="#050713" opacity="0.880" stroke="#FF16D4" stroke-width="5.00" stroke-linejoin="round" stroke-linecap="round" />
<polygon points="707.99,364.98 802.12,344.50 737.32,415.78" fill="#050713" opacity="0.880" stroke="#FF16D4" stroke-width="5.00" stroke-linejoin="round" stroke-linecap="round" />
</g>
<g transform="translate(2048.00 1024.00)">
<polygon points="560.83,591.00 424.00,670.00 287.17,591.00 287.17,433.00 424.00,354.00 560.83,433.00" fill="#050713" opacity="0.940" stroke="#00F2FF" stroke-width="12.00" stroke-linejoin="round" stroke-linecap="round" />
<polygon points="612.90,286.55 623.92,393.37 525.90,349.50" fill="#080B19" opacity="0.860" stroke="#FF16D4" stroke-width="6.00" stroke-linejoin="round" stroke-linecap="round" />
<polygon points="702.50,354.78 664.95,455.38 596.59,372.56" fill="#080B19" opacity="0.860" stroke="#FF16D4" stroke-width="6.00" stroke-linejoin="round" stroke-linecap="round" />
<polygon points="752.50,455.69 674.19,529.17 649.70,424.61" fill="#080B19" opacity="0.860" stroke="#FF16D4" stroke-width="6.00" stroke-linejoin="round" stroke-linecap="round" />
<polygon points="752.50,568.31 649.70,599.39 674.19,494.83" fill="#080B19" opacity="0.860" stroke="#FF16D4" stroke-width="6.00" stroke-linejoin="round" stroke-linecap="round" />
<polygon points="702.50,669.22 596.59,651.44 664.95,568.62" fill="#080B19" opacity="0.860" stroke="#FF16D4" stroke-width="6.00" stroke-linejoin="round" stroke-linecap="round" />
<polygon points="612.90,737.45 525.90,674.50 623.92,630.63" fill="#080B19" opacity="0.860" stroke="#FF16D4" stroke-width="6.00" stroke-linejoin="round" stroke-linecap="round" />
</g>
<g transform="translate(3072.00 1024.00)">
<polygon points="467.00,252.00 599.00,512.00 467.00,772.00 335.00,512.00" fill="#050713" opacity="0.940" stroke="#00F2FF" stroke-width="13.00" stroke-linejoin="round" stroke-linecap="round" />
<line x1="467.00" y1="357.00" x2="467.00" y2="667.00" stroke="#F7FFFF" stroke-width="25.60" opacity="0.160" stroke-linecap="round"/>
<line x1="467.00" y1="357.00" x2="467.00" y2="667.00" stroke="#F7FFFF" stroke-width="8.00" opacity="0.920" stroke-linecap="round"/>
<line x1="467.00" y1="357.00" x2="467.00" y2="667.00" stroke="#F7FFFF" stroke-width="2.56" opacity="0.920" stroke-linecap="round"/>
<polygon points="642.00,512.00 583.11,410.00 700.89,410.00" fill="#080B19" opacity="0.860" stroke="#FF16D4" stroke-width="6.00" stroke-linejoin="round" stroke-linecap="round" />
<polygon points="732.00,580.00 673.11,478.00 790.89,478.00" fill="#080B19" opacity="0.860" stroke="#FF16D4" stroke-width="6.00" stroke-linejoin="round" stroke-linecap="round" />
<polygon points="812.00,648.00 753.11,546.00 870.89,546.00" fill="#080B19" opacity="0.860" stroke="#FF16D4" stroke-width="6.00" stroke-linejoin="round" stroke-linecap="round" />
</g>
<g transform="translate(4096.00 1024.00)">
<polygon points="552.00,472.00 456.74,307.00 647.26,307.00" fill="#050713" opacity="0.920" stroke="#FF7A1A" stroke-width="10.00" stroke-linejoin="round" stroke-linecap="round" />
<line x1="212.00" y1="444.50" x2="602.00" y2="362.00" stroke="#F7FFFF" stroke-width="19.20" opacity="0.160" stroke-linecap="round"/>
<line x1="212.00" y1="444.50" x2="602.00" y2="362.00" stroke="#F7FFFF" stroke-width="6.00" opacity="0.920" stroke-linecap="round"/>
<polygon points="552.00,622.00 456.74,457.00 647.26,457.00" fill="#050713" opacity="0.920" stroke="#00F2FF" stroke-width="10.00" stroke-linejoin="round" stroke-linecap="round" />
<line x1="212.00" y1="512.00" x2="602.00" y2="512.00" stroke="#F7FFFF" stroke-width="19.20" opacity="0.160" stroke-linecap="round"/>
<line x1="212.00" y1="512.00" x2="602.00" y2="512.00" stroke="#F7FFFF" stroke-width="6.00" opacity="0.920" stroke-linecap="round"/>
<polygon points="552.00,772.00 456.74,607.00 647.26,607.00" fill="#050713" opacity="0.920" stroke="#FF7A1A" stroke-width="10.00" stroke-linejoin="round" stroke-linecap="round" />
<line x1="212.00" y1="579.50" x2="602.00" y2="662.00" stroke="#F7FFFF" stroke-width="19.20" opacity="0.160" stroke-linecap="round"/>
<line x1="212.00" y1="579.50" x2="602.00" y2="662.00" stroke="#F7FFFF" stroke-width="6.00" opacity="0.920" stroke-linecap="round"/>
</g>
<g transform="translate(0.00 2048.00)">
<polygon points="536.51,476.00 417.00,545.00 297.49,476.00 297.49,338.00 417.00,269.00 536.51,338.00" fill="#050713" opacity="0.950" stroke="#FF7A1A" stroke-width="14.00" stroke-linejoin="round" stroke-linecap="round" />
<path d="M 252.0 692.0 Q 512.0 222.0 772.0 632.0" fill="none" opacity="0.700" stroke="#00F2FF" stroke-width="14.00" stroke-linejoin="round" stroke-linecap="round"/>
<polygon points="854.91,636.00 822.00,655.00 789.09,636.00 789.09,598.00 822.00,579.00 854.91,598.00" fill="#080B19" opacity="0.820" stroke="#00F2FF" stroke-width="4.00" stroke-linejoin="round" stroke-linecap="round" />
<polygon points="804.91,722.60 772.00,741.60 739.09,722.60 739.09,684.60 772.00,665.60 804.91,684.60" fill="#080B19" opacity="0.820" stroke="#00F2FF" stroke-width="4.00" stroke-linejoin="round" stroke-linecap="round" />
<polygon points="704.91,722.60 672.00,741.60 639.09,722.60 639.09,684.60 672.00,665.60 704.91,684.60" fill="#080B19" opacity="0.820" stroke="#00F2FF" stroke-width="4.00" stroke-linejoin="round" stroke-linecap="round" />
<polygon points="654.91,636.00 622.00,655.00 589.09,636.00 589.09,598.00 622.00,579.00 654.91,598.00" fill="#080B19" opacity="0.820" stroke="#00F2FF" stroke-width="4.00" stroke-linejoin="round" stroke-linecap="round" />
<polygon points="704.91,549.40 672.00,568.40 639.09,549.40 639.09,511.40 672.00,492.40 704.91,511.40" fill="#080B19" opacity="0.820" stroke="#00F2FF" stroke-width="4.00" stroke-linejoin="round" stroke-linecap="round" />
<polygon points="804.91,549.40 772.00,568.40 739.09,549.40 739.09,511.40 772.00,492.40 804.91,511.40" fill="#080B19" opacity="0.820" stroke="#00F2FF" stroke-width="4.00" stroke-linejoin="round" stroke-linecap="round" />
</g>
<g transform="translate(1024.00 2048.00)">
<line x1="152.00" y1="512.00" x2="762.00" y2="512.00" stroke="#00F2FF" stroke-width="51.20" opacity="0.160" stroke-linecap="round"/>
<line x1="152.00" y1="512.00" x2="762.00" y2="512.00" stroke="#00F2FF" stroke-width="16.00" opacity="0.920" stroke-linecap="round"/>
<line x1="152.00" y1="512.00" x2="762.00" y2="512.00" stroke="#F7FFFF" stroke-width="5.12" opacity="0.920" stroke-linecap="round"/>
<polygon points="762.00,392.00 897.00,512.00 762.00,632.00" fill="#050713" opacity="0.960" stroke="#F7FFFF" stroke-width="10.00" stroke-linejoin="round" stroke-linecap="round" />
<line x1="252.00" y1="438.00" x2="682.00" y2="438.00" stroke="#198DFF" stroke-width="19.20" opacity="0.160" stroke-linecap="round"/>
<line x1="252.00" y1="438.00" x2="682.00" y2="438.00" stroke="#198DFF" stroke-width="6.00" opacity="0.920" stroke-linecap="round"/>
<line x1="252.00" y1="438.00" x2="682.00" y2="438.00" stroke="#F7FFFF" stroke-width="2.00" opacity="0.920" stroke-linecap="round"/>
</g>
<g transform="translate(2048.00 2048.00)">
<circle cx="512.00" cy="512.00" r="280.00" fill="none" opacity="0.460" stroke="#00F2FF" stroke-width="12.00"/>
<circle cx="757.00" cy="512.00" r="62.00" fill="none" opacity="0.780" stroke="#FF7A1A" stroke-width="10.00"/>
<polygon points="835.00,512.00 718.00,579.55 718.00,444.45" fill="#050713" opacity="0.860" stroke="#FF16D4" stroke-width="5.00" stroke-linejoin="round" stroke-linecap="round" />
<circle cx="634.50" cy="724.18" r="62.00" fill="none" opacity="0.780" stroke="#FF7A1A" stroke-width="10.00"/>
<polygon points="673.50,791.73 556.50,724.18 673.50,656.63" fill="#050713" opacity="0.860" stroke="#FF16D4" stroke-width="5.00" stroke-linejoin="round" stroke-linecap="round" />
<circle cx="389.50" cy="724.18" r="62.00" fill="none" opacity="0.780" stroke="#FF7A1A" stroke-width="10.00"/>
<polygon points="350.50,791.73 350.50,656.63 467.50,724.18" fill="#050713" opacity="0.860" stroke="#FF16D4" stroke-width="5.00" stroke-linejoin="round" stroke-linecap="round" />
<circle cx="267.00" cy="512.00" r="62.00" fill="none" opacity="0.780" stroke="#FF7A1A" stroke-width="10.00"/>
<polygon points="189.00,512.00 306.00,444.45 306.00,579.55" fill="#050713" opacity="0.860" stroke="#FF16D4" stroke-width="5.00" stroke-linejoin="round" stroke-linecap="round" />
<circle cx="389.50" cy="299.82" r="62.00" fill="none" opacity="0.780" stroke="#FF7A1A" stroke-width="10.00"/>
<polygon points="350.50,232.27 467.50,299.82 350.50,367.37" fill="#050713" opacity="0.860" stroke="#FF16D4" stroke-width="5.00" stroke-linejoin="round" stroke-linecap="round" />
<circle cx="634.50" cy="299.82" r="62.00" fill="none" opacity="0.780" stroke="#FF7A1A" stroke-width="10.00"/>
<polygon points="673.50,232.27 673.50,367.37 556.50,299.82" fill="#050713" opacity="0.860" stroke="#FF16D4" stroke-width="5.00" stroke-linejoin="round" stroke-linecap="round" />
</g>
<g transform="translate(3072.00 2048.00)">
<line x1="202.00" y1="622.00" x2="367.00" y2="417.00" stroke="#00F2FF" stroke-width="51.20" opacity="0.160" stroke-linecap="round"/>
<line x1="202.00" y1="622.00" x2="367.00" y2="417.00" stroke="#00F2FF" stroke-width="16.00" opacity="0.920" stroke-linecap="round"/>
<line x1="202.00" y1="622.00" x2="367.00" y2="417.00" stroke="#F7FFFF" stroke-width="5.12" opacity="0.920" stroke-linecap="round"/>
<line x1="367.00" y1="417.00" x2="572.00" y2="597.00" stroke="#00F2FF" stroke-width="51.20" opacity="0.160" stroke-linecap="round"/>
<line x1="367.00" y1="417.00" x2="572.00" y2="597.00" stroke="#00F2FF" stroke-width="16.00" opacity="0.920" stroke-linecap="round"/>
<line x1="367.00" y1="417.00" x2="572.00" y2="597.00" stroke="#F7FFFF" stroke-width="5.12" opacity="0.920" stroke-linecap="round"/>
<line x1="572.00" y1="597.00" x2="797.00" y2="397.00" stroke="#00F2FF" stroke-width="51.20" opacity="0.160" stroke-linecap="round"/>
<line x1="572.00" y1="597.00" x2="797.00" y2="397.00" stroke="#00F2FF" stroke-width="16.00" opacity="0.920" stroke-linecap="round"/>
<line x1="572.00" y1="597.00" x2="797.00" y2="397.00" stroke="#F7FFFF" stroke-width="5.12" opacity="0.920" stroke-linecap="round"/>
<polygon points="202.00,550.00 264.00,622.00 202.00,694.00 140.00,622.00" fill="#050713" opacity="0.910" stroke="#FF16D4" stroke-width="7.00" stroke-linejoin="round" stroke-linecap="round" />
<polygon points="367.00,345.00 429.00,417.00 367.00,489.00 305.00,417.00" fill="#050713" opacity="0.910" stroke="#FF16D4" stroke-width="7.00" stroke-linejoin="round" stroke-linecap="round" />
<polygon points="572.00,525.00 634.00,597.00 572.00,669.00 510.00,597.00" fill="#050713" opacity="0.910" stroke="#FF16D4" stroke-width="7.00" stroke-linejoin="round" stroke-linecap="round" />
<polygon points="797.00,325.00 859.00,397.00 797.00,469.00 735.00,397.00" fill="#050713" opacity="0.910" stroke="#FF16D4" stroke-width="7.00" stroke-linejoin="round" stroke-linecap="round" />
</g>
<g transform="translate(4096.00 2048.00)">
<circle cx="512.00" cy="512.00" r="70.00" fill="#050713" opacity="0.980" stroke="#F7FFFF" stroke-width="9.00"/>
<circle cx="512.00" cy="512.00" r="175.00" fill="none" opacity="0.620" stroke="#FF16D4" stroke-width="22.00"/>
<circle cx="512.00" cy="512.00" r="305.00" fill="none" opacity="0.460" stroke="#00F2FF" stroke-width="12.00"/>
<path d="M 262.0 452.0 C 392.0 252.0 692.0 322.0 757.0 542.0" fill="none" opacity="0.640" stroke="#9854FF" stroke-width="11.00" stroke-linejoin="round" stroke-linecap="round"/>
</g>
<g transform="translate(0.00 3072.00)">
<line x1="232.00" y1="367.00" x2="792.00" y2="297.00" stroke="#00F2FF" stroke-width="28.80" opacity="0.160" stroke-linecap="round"/>
<line x1="232.00" y1="367.00" x2="792.00" y2="297.00" stroke="#00F2FF" stroke-width="9.00" opacity="0.920" stroke-linecap="round"/>
<line x1="232.00" y1="367.00" x2="792.00" y2="297.00" stroke="#F7FFFF" stroke-width="2.88" opacity="0.920" stroke-linecap="round"/>
<polygon points="827.00,242.00 855.00,294.00 827.00,346.00 799.00,294.00" fill="#050713" opacity="0.900" stroke="#00F2FF" stroke-width="4.00" stroke-linejoin="round" stroke-linecap="round" />
<line x1="232.00" y1="457.00" x2="792.00" y2="387.00" stroke="#F7FFFF" stroke-width="28.80" opacity="0.160" stroke-linecap="round"/>
<line x1="232.00" y1="457.00" x2="792.00" y2="387.00" stroke="#F7FFFF" stroke-width="9.00" opacity="0.920" stroke-linecap="round"/>
<line x1="232.00" y1="457.00" x2="792.00" y2="387.00" stroke="#F7FFFF" stroke-width="2.88" opacity="0.920" stroke-linecap="round"/>
<polygon points="827.00,332.00 855.00,384.00 827.00,436.00 799.00,384.00" fill="#050713" opacity="0.900" stroke="#00F2FF" stroke-width="4.00" stroke-linejoin="round" stroke-linecap="round" />
<line x1="232.00" y1="547.00" x2="792.00" y2="477.00" stroke="#00F2FF" stroke-width="28.80" opacity="0.160" stroke-linecap="round"/>
<line x1="232.00" y1="547.00" x2="792.00" y2="477.00" stroke="#00F2FF" stroke-width="9.00" opacity="0.920" stroke-linecap="round"/>
<line x1="232.00" y1="547.00" x2="792.00" y2="477.00" stroke="#F7FFFF" stroke-width="2.88" opacity="0.920" stroke-linecap="round"/>
<polygon points="827.00,422.00 855.00,474.00 827.00,526.00 799.00,474.00" fill="#050713" opacity="0.900" stroke="#00F2FF" stroke-width="4.00" stroke-linejoin="round" stroke-linecap="round" />
<line x1="232.00" y1="637.00" x2="792.00" y2="567.00" stroke="#F7FFFF" stroke-width="28.80" opacity="0.160" stroke-linecap="round"/>
<line x1="232.00" y1="637.00" x2="792.00" y2="567.00" stroke="#F7FFFF" stroke-width="9.00" opacity="0.920" stroke-linecap="round"/>
<line x1="232.00" y1="637.00" x2="792.00" y2="567.00" stroke="#F7FFFF" stroke-width="2.88" opacity="0.920" stroke-linecap="round"/>
<polygon points="827.00,512.00 855.00,564.00 827.00,616.00 799.00,564.00" fill="#050713" opacity="0.900" stroke="#00F2FF" stroke-width="4.00" stroke-linejoin="round" stroke-linecap="round" />
<line x1="232.00" y1="727.00" x2="792.00" y2="657.00" stroke="#00F2FF" stroke-width="28.80" opacity="0.160" stroke-linecap="round"/>
<line x1="232.00" y1="727.00" x2="792.00" y2="657.00" stroke="#00F2FF" stroke-width="9.00" opacity="0.920" stroke-linecap="round"/>
<line x1="232.00" y1="727.00" x2="792.00" y2="657.00" stroke="#F7FFFF" stroke-width="2.88" opacity="0.920" stroke-linecap="round"/>
<polygon points="827.00,602.00 855.00,654.00 827.00,706.00 799.00,654.00" fill="#050713" opacity="0.900" stroke="#00F2FF" stroke-width="4.00" stroke-linejoin="round" stroke-linecap="round" />
</g>
<g transform="translate(1024.00 3072.00)">
<polygon points="452.00,244.00 571.51,451.00 332.49,451.00" fill="#050713" opacity="0.940" stroke="#00F2FF" stroke-width="11.00" stroke-linejoin="round" stroke-linecap="round" />
<polygon points="652.48,470.29 648.39,556.80 575.52,510.01" fill="#080B19" opacity="0.840" stroke="#FF7A1A" stroke-width="5.00" stroke-linejoin="round" stroke-linecap="round" />
<polygon points="702.24,503.86 676.88,586.66 617.85,523.30" fill="#080B19" opacity="0.840" stroke="#FF16D4" stroke-width="5.00" stroke-linejoin="round" stroke-linecap="round" />
<polygon points="740.17,546.32 695.11,620.28 653.59,544.28" fill="#080B19" opacity="0.840" stroke="#FF7A1A" stroke-width="5.00" stroke-linejoin="round" stroke-linecap="round" />
<polygon points="763.92,595.05 701.96,655.56 680.54,571.65" fill="#080B19" opacity="0.840" stroke="#FF16D4" stroke-width="5.00" stroke-linejoin="round" stroke-linecap="round" />
<polygon points="772.00,647.00 697.00,690.30 697.00,603.70" fill="#080B19" opacity="0.840" stroke="#FF7A1A" stroke-width="5.00" stroke-linejoin="round" stroke-linecap="round" />
<polygon points="763.92,698.95 680.54,722.35 701.96,638.44" fill="#080B19" opacity="0.840" stroke="#FF16D4" stroke-width="5.00" stroke-linejoin="round" stroke-linecap="round" />
<polygon points="740.17,747.68 653.59,749.72 695.11,673.72" fill="#080B19" opacity="0.840" stroke="#FF7A1A" stroke-width="5.00" stroke-linejoin="round" stroke-linecap="round" />
<polygon points="702.24,790.14 617.85,770.70 676.88,707.34" fill="#080B19" opacity="0.840" stroke="#FF16D4" stroke-width="5.00" stroke-linejoin="round" stroke-linecap="round" />
<polygon points="652.48,823.71 575.52,783.99 648.39,737.20" fill="#080B19" opacity="0.840" stroke="#FF7A1A" stroke-width="5.00" stroke-linejoin="round" stroke-linecap="round" />
</g>
<g transform="translate(2048.00 3072.00)">
<polygon points="512.00,202.00 742.00,512.00 512.00,822.00 282.00,512.00" fill="#050713" opacity="0.960" stroke="#FF7A1A" stroke-width="16.00" stroke-linejoin="round" stroke-linecap="round" />
<line x1="292.00" y1="512.00" x2="732.00" y2="512.00" stroke="#F7FFFF" stroke-width="38.40" opacity="0.160" stroke-linecap="round"/>
<line x1="292.00" y1="512.00" x2="732.00" y2="512.00" stroke="#F7FFFF" stroke-width="12.00" opacity="0.920" stroke-linecap="round"/>
<line x1="292.00" y1="512.00" x2="732.00" y2="512.00" stroke="#F7FFFF" stroke-width="3.84" opacity="0.920" stroke-linecap="round"/>
<line x1="512.00" y1="282.00" x2="512.00" y2="742.00" stroke="#00F2FF" stroke-width="22.40" opacity="0.160" stroke-linecap="round"/>
<line x1="512.00" y1="282.00" x2="512.00" y2="742.00" stroke="#00F2FF" stroke-width="7.00" opacity="0.920" stroke-linecap="round"/>
<line x1="512.00" y1="282.00" x2="512.00" y2="742.00" stroke="#F7FFFF" stroke-width="2.24" opacity="0.920" stroke-linecap="round"/>
</g>
<g transform="translate(3072.00 3072.00)">
<line x1="607.00" y1="512.00" x2="852.00" y2="512.00" stroke="#00F2FF" stroke-width="28.80" opacity="0.160" stroke-linecap="round"/>
<line x1="607.00" y1="512.00" x2="852.00" y2="512.00" stroke="#00F2FF" stroke-width="9.00" opacity="0.920" stroke-linecap="round"/>
<line x1="607.00" y1="512.00" x2="852.00" y2="512.00" stroke="#F7FFFF" stroke-width="2.88" opacity="0.920" stroke-linecap="round"/>
<line x1="594.27" y1="559.50" x2="806.45" y2="682.00" stroke="#FF16D4" stroke-width="28.80" opacity="0.160" stroke-linecap="round"/>
<line x1="594.27" y1="559.50" x2="806.45" y2="682.00" stroke="#FF16D4" stroke-width="9.00" opacity="0.920" stroke-linecap="round"/>
<line x1="594.27" y1="559.50" x2="806.45" y2="682.00" stroke="#F7FFFF" stroke-width="2.88" opacity="0.920" stroke-linecap="round"/>
<line x1="559.50" y1="594.27" x2="682.00" y2="806.45" stroke="#00F2FF" stroke-width="28.80" opacity="0.160" stroke-linecap="round"/>
<line x1="559.50" y1="594.27" x2="682.00" y2="806.45" stroke="#00F2FF" stroke-width="9.00" opacity="0.920" stroke-linecap="round"/>
<line x1="559.50" y1="594.27" x2="682.00" y2="806.45" stroke="#F7FFFF" stroke-width="2.88" opacity="0.920" stroke-linecap="round"/>
<line x1="512.00" y1="607.00" x2="512.00" y2="852.00" stroke="#FF16D4" stroke-width="28.80" opacity="0.160" stroke-linecap="round"/>
<line x1="512.00" y1="607.00" x2="512.00" y2="852.00" stroke="#FF16D4" stroke-width="9.00" opacity="0.920" stroke-linecap="round"/>
<line x1="512.00" y1="607.00" x2="512.00" y2="852.00" stroke="#F7FFFF" stroke-width="2.88" opacity="0.920" stroke-linecap="round"/>
<line x1="464.50" y1="594.27" x2="342.00" y2="806.45" stroke="#00F2FF" stroke-width="28.80" opacity="0.160" stroke-linecap="round"/>
<line x1="464.50" y1="594.27" x2="342.00" y2="806.45" stroke="#00F2FF" stroke-width="9.00" opacity="0.920" stroke-linecap="round"/>
<line x1="464.50" y1="594.27" x2="342.00" y2="806.45" stroke="#F7FFFF" stroke-width="2.88" opacity="0.920" stroke-linecap="round"/>
<line x1="429.73" y1="559.50" x2="217.55" y2="682.00" stroke="#FF16D4" stroke-width="28.80" opacity="0.160" stroke-linecap="round"/>
<line x1="429.73" y1="559.50" x2="217.55" y2="682.00" stroke="#FF16D4" stroke-width="9.00" opacity="0.920" stroke-linecap="round"/>
<line x1="429.73" y1="559.50" x2="217.55" y2="682.00" stroke="#F7FFFF" stroke-width="2.88" opacity="0.920" stroke-linecap="round"/>
<line x1="417.00" y1="512.00" x2="172.00" y2="512.00" stroke="#00F2FF" stroke-width="28.80" opacity="0.160" stroke-linecap="round"/>
<line x1="417.00" y1="512.00" x2="172.00" y2="512.00" stroke="#00F2FF" stroke-width="9.00" opacity="0.920" stroke-linecap="round"/>
<line x1="417.00" y1="512.00" x2="172.00" y2="512.00" stroke="#F7FFFF" stroke-width="2.88" opacity="0.920" stroke-linecap="round"/>
<line x1="429.73" y1="464.50" x2="217.55" y2="342.00" stroke="#FF16D4" stroke-width="28.80" opacity="0.160" stroke-linecap="round"/>
<line x1="429.73" y1="464.50" x2="217.55" y2="342.00" stroke="#FF16D4" stroke-width="9.00" opacity="0.920" stroke-linecap="round"/>
<line x1="429.73" y1="464.50" x2="217.55" y2="342.00" stroke="#F7FFFF" stroke-width="2.88" opacity="0.920" stroke-linecap="round"/>
<line x1="464.50" y1="429.73" x2="342.00" y2="217.55" stroke="#00F2FF" stroke-width="28.80" opacity="0.160" stroke-linecap="round"/>
<line x1="464.50" y1="429.73" x2="342.00" y2="217.55" stroke="#00F2FF" stroke-width="9.00" opacity="0.920" stroke-linecap="round"/>
<line x1="464.50" y1="429.73" x2="342.00" y2="217.55" stroke="#F7FFFF" stroke-width="2.88" opacity="0.920" stroke-linecap="round"/>
<line x1="512.00" y1="417.00" x2="512.00" y2="172.00" stroke="#FF16D4" stroke-width="28.80" opacity="0.160" stroke-linecap="round"/>
<line x1="512.00" y1="417.00" x2="512.00" y2="172.00" stroke="#FF16D4" stroke-width="9.00" opacity="0.920" stroke-linecap="round"/>
<line x1="512.00" y1="417.00" x2="512.00" y2="172.00" stroke="#F7FFFF" stroke-width="2.88" opacity="0.920" stroke-linecap="round"/>
<line x1="559.50" y1="429.73" x2="682.00" y2="217.55" stroke="#00F2FF" stroke-width="28.80" opacity="0.160" stroke-linecap="round"/>
<line x1="559.50" y1="429.73" x2="682.00" y2="217.55" stroke="#00F2FF" stroke-width="9.00" opacity="0.920" stroke-linecap="round"/>
<line x1="559.50" y1="429.73" x2="682.00" y2="217.55" stroke="#F7FFFF" stroke-width="2.88" opacity="0.920" stroke-linecap="round"/>
<line x1="594.27" y1="464.50" x2="806.45" y2="342.00" stroke="#FF16D4" stroke-width="28.80" opacity="0.160" stroke-linecap="round"/>
<line x1="594.27" y1="464.50" x2="806.45" y2="342.00" stroke="#FF16D4" stroke-width="9.00" opacity="0.920" stroke-linecap="round"/>
<line x1="594.27" y1="464.50" x2="806.45" y2="342.00" stroke="#F7FFFF" stroke-width="2.88" opacity="0.920" stroke-linecap="round"/>
<circle cx="512.00" cy="512.00" r="118.00" fill="none" opacity="0.820" stroke="#F7FFFF" stroke-width="9.00"/>
<circle cx="512.00" cy="512.00" r="52.00" fill="#F7FFFF" opacity="0.930" stroke="#FF7A1A" stroke-width="6.00"/>
</g>
</svg>
