<?xml version="1.0" encoding="UTF-8" standalone="no"?>
<svg xmlns="http://www.w3.org/2000/svg" width="5120" height="4096" viewBox="0 0 5120 4096" version="1.1">
<rect x="0" y="0" width="5120" height="4096" fill="none"/>
<g transform="translate(0.00 0.00)">
<polygon points="512.00,443.36 767.20,512.00 512.00,580.64 256.80,512.00" fill="#050713" opacity="0.920" stroke="#00F2FF" stroke-width="12.32" stroke-linejoin="round" stroke-linecap="round" />
<line x1="248.00" y1="512.00" x2="776.00" y2="512.00" stroke="#00F2FF" stroke-width="67.58" opacity="0.160" stroke-linecap="round"/>
<line x1="248.00" y1="512.00" x2="776.00" y2="512.00" stroke="#00F2FF" stroke-width="21.12" opacity="0.920" stroke-linecap="round"/>
<line x1="248.00" y1="512.00" x2="776.00" y2="512.00" stroke="#F7FFFF" stroke-width="6.76" opacity="0.920" stroke-linecap="round"/>
<line x1="406.40" y1="450.40" x2="661.60" y2="450.40" stroke="#FF16D4" stroke-width="25.34" opacity="0.160" stroke-linecap="round"/>
<line x1="406.40" y1="450.40" x2="661.60" y2="450.40" stroke="#FF16D4" stroke-width="7.92" opacity="0.920" stroke-linecap="round"/>
<line x1="406.40" y1="450.40" x2="661.60" y2="450.40" stroke="#F7FFFF" stroke-width="2.53" opacity="0.920" stroke-linecap="round"/>
</g>
<g transform="translate(1024.00 0.00)">
<ellipse cx="512.00" cy="512.00" rx="281.60" ry="103.84" fill="none" opacity="0.640" stroke="#00F2FF" stroke-width="15.84" transform="rotate(-18.00 512.00 512.00)"/>
<circle cx="661.60" cy="466.24" r="61.60" fill="#F7FFFF" opacity="0.960" stroke="#00F2FF" stroke-width="7.04"/>
<circle cx="375.60" cy="563.04" r="42.24" fill="#FF16D4" opacity="0.900" stroke="#F7FFFF" stroke-width="4.40"/>
</g>
<g transform="translate(2048.00 0.00)">
<circle cx="512.00" cy="512.00" r="70.40" fill="#F7FFFF" opacity="0.860" stroke="#00F2FF" stroke-width="7.04"/>
<circle cx="512.00" cy="512.00" r="167.20" fill="none" opacity="0.580" stroke="#00F2FF" stroke-width="17.60"/>
<circle cx="512.00" cy="512.00" r="272.80" fill="none" opacity="0.420" stroke="#FF16D4" stroke-width="10.56"/>
</g>
<g transform="translate(3072.00 0.00)">
<line x1="221.60" y1="424.00" x2="397.60" y2="595.60" stroke="#00F2FF" stroke-width="61.95" opacity="0.160" stroke-linecap="round"/>
<line x1="221.60" y1="424.00" x2="397.60" y2="595.60" stroke="#00F2FF" stroke-width="19.36" opacity="0.920" stroke-linecap="round"/>
<line x1="221.60" y1="424.00" x2="397.60" y2="595.60" stroke="#F7FFFF" stroke-width="6.20" opacity="0.920" stroke-linecap="round"/>
<line x1="397.60" y1="595.60" x2="529.60" y2="463.60" stroke="#00F2FF" stroke-width="61.95" opacity="0.160" stroke-linecap="round"/>
<line x1="397.60" y1="595.60" x2="529.60" y2="463.60" stroke="#00F2FF" stroke-width="19.36" opacity="0.920" stroke-linecap="round"/>
<line x1="397.60" y1="595.60" x2="529.60" y2="463.60" stroke="#F7FFFF" stroke-width="6.20" opacity="0.920" stroke-linecap="round"/>
<line x1="529.60" y1="463.60" x2="784.80" y2="617.60" stroke="#00F2FF" stroke-width="61.95" opacity="0.160" stroke-linecap="round"/>
<line x1="529.60" y1="463.60" x2="784.80" y2="617.60" stroke="#00F2FF" stroke-width="19.36" opacity="0.920" stroke-linecap="round"/>
<line x1="529.60" y1="463.60" x2="784.80" y2="617.60" stroke="#F7FFFF" stroke-width="6.20" opacity="0.920" stroke-linecap="round"/>
<circle cx="221.60" cy="424.00" r="36.96" fill="#F7FFFF" opacity="0.950" stroke="#00F2FF" stroke-width="5.28"/>
<circle cx="397.60" cy="595.60" r="36.96" fill="#F7FFFF" opacity="0.950" stroke="#00F2FF" stroke-width="5.28"/>
<circle cx="529.60" cy="463.60" r="36.96" fill="#F7FFFF" opacity="0.950" stroke="#00F2FF" stroke-width="5.28"/>
<circle cx="784.80" cy="617.60" r="36.96" fill="#F7FFFF" opacity="0.950" stroke="#00F2FF" stroke-width="5.28"/>
</g>
<g transform="translate(4096.00 0.00)">
<circle cx="512.00" cy="512.00" r="72.16" fill="#F7FFFF" opacity="0.950" stroke="#9854FF" stroke-width="7.04"/>
<circle cx="512.00" cy="512.00" r="176.00" fill="none" opacity="0.600" stroke="#FF16D4" stroke-width="17.60"/>
<ellipse cx="512.00" cy="512.00" rx="268.40" ry="80.96" fill="none" opacity="0.480" stroke="#00F2FF" stroke-width="10.56" transform="rotate(28.00 512.00 512.00)"/>
</g>
<g transform="translate(0.00 1024.00)">
<polygon points="204.00,463.60 644.00,463.60 776.00,512.00 644.00,560.40 204.00,560.40" fill="#050713" opacity="0.950" stroke="#9854FF" stroke-width="10.56" stroke-linejoin="round" stroke-linecap="round" />
<line x1="239.20" y1="512.00" x2="758.40" y2="512.00" stroke="#FF16D4" stroke-width="50.69" opacity="0.160" stroke-linecap="round"/>
<line x1="239.20" y1="512.00" x2="758.40" y2="512.00" stroke="#FF16D4" stroke-width="15.84" opacity="0.920" stroke-linecap="round"/>
<line x1="239.20" y1="512.00" x2="758.40" y2="512.00" stroke="#F7FFFF" stroke-width="5.07" opacity="0.920" stroke-linecap="round"/>
<line x1="327.20" y1="431.04" x2="613.20" y2="431.04" stroke="#00F2FF" stroke-width="19.71" opacity="0.160" stroke-linecap="round"/>
<line x1="327.20" y1="431.04" x2="613.20" y2="431.04" stroke="#00F2FF" stroke-width="6.16" opacity="0.920" stroke-linecap="round"/>
<line x1="327.20" y1="431.04" x2="613.20" y2="431.04" stroke="#F7FFFF" stroke-width="2.00" opacity="0.920" stroke-linecap="round"/>
</g>
<g transform="translate(1024.00 1024.00)">
<circle cx="512.00" cy="512.00" r="215.60" fill="none" opacity="0.780" stroke="#00F2FF" stroke-width="24.64"/>
<circle cx="512.00" cy="512.00" r="145.20" fill="none" opacity="0.660" stroke="#F7FFFF" stroke-width="7.92"/>
<polygon points="726.05,486.19 806.80,512.00 726.05,537.81" fill="#050713" opacity="0.880" stroke="#FF16D4" stroke-width="4.40" stroke-linejoin="round" stroke-linecap="round" />
<polygon points="710.28,596.67 767.30,659.40 684.47,641.38" fill="#050713" opacity="0.880" stroke="#FF16D4" stroke-width="4.40" stroke-linejoin="round" stroke-linecap="round" />
<polygon points="641.38,684.47 659.40,767.30 596.67,710.28" fill="#050713" opacity="0.880" stroke="#FF16D4" stroke-width="4.40" stroke-linejoin="round" stroke-linecap="round" />
<polygon points="537.81,726.05 512.00,806.80 486.19,726.05" fill="#050713" opacity="0.880" stroke="#FF16D4" stroke-width="4.40" stroke-linejoin="round" stroke-linecap="round" />
<polygon points="427.33,710.28 364.60,767.30 382.62,684.47" fill="#050713" opacity="0.880" stroke="#FF16D4" stroke-width="4.40" stroke-linejoin="round" stroke-linecap="round" />
<polygon points="339.53,641.38 256.70,659.40 313.72,596.67" fill="#050713" opacity="0.880" stroke="#FF16D4" stroke-width="4.40" stroke-linejoin="round" stroke-linecap="round" />
<polygon points="297.95,537.81 217.20,512.00 297.95,486.19" fill="#050713" opacity="0.880" stroke="#FF16D4" stroke-width="4.40" stroke-linejoin="round" stroke-linecap="round" />
<polygon points="313.72,427.33 256.70,364.60 339.53,382.62" fill="#050713" opacity="0.880" stroke="#FF16D4" stroke-width="4.40" stroke-linejoin="round" stroke-linecap="round" />
<polygon points="382.62,339.53 364.60,256.70 427.33,313.72" fill="#050713" opacity="0.880" stroke="#FF16D4" stroke-width="4.40" stroke-linejoin="round" stroke-linecap="round" />
<polygon points="486.19,297.95 512.00,217.20 537.81,297.95" fill="#050713" opacity="0.880" stroke="#FF16D4" stroke-width="4.40" stroke-linejoin="round" stroke-linecap="round" />
<polygon points="596.67,313.72 659.40,256.70 641.38,339.53" fill="#050713" opacity="0.880" stroke="#FF16D4" stroke-width="4.40" stroke-linejoin="round" stroke-linecap="round" />
<polygon points="684.47,382.62 767.30,364.60 710.28,427.33" fill="#050713" opacity="0.880" stroke="#FF16D4" stroke-width="4.40" stroke-linejoin="round" stroke-linecap="round" />
</g>
<g transform="translate(2048.00 1024.00)">
<polygon points="554.97,581.52 434.56,651.04 314.15,581.52 314.15,442.48 434.56,372.96 554.97,442.48" fill="#050713" opacity="0.940" stroke="#00F2FF" stroke-width="10.56" stroke-linejoin="round" stroke-linecap="round" />
<polygon points="600.79,313.60 610.49,407.60 524.23,369.00" fill="#080B19" opacity="0.860" stroke="#FF16D4" stroke-width="5.28" stroke-linejoin="round" stroke-linecap="round" />
<polygon points="679.64,373.64 646.60,462.18 586.44,389.29" fill="#080B19" opacity="0.860" stroke="#FF16D4" stroke-width="5.28" stroke-linejoin="round" stroke-linecap="round" />
<polygon points="723.64,462.45 654.72,527.11 633.18,435.10" fill="#080B19" opacity="0.860" stroke="#FF16D4" stroke-width="5.28" stroke-linejoin="round" stroke-linecap="round" />
<polygon points="723.64,561.55 633.18,588.90 654.72,496.89" fill="#080B19" opacity="0.860" stroke="#FF16D4" stroke-width="5.28" stroke-linejoin="round" stroke-linecap="round" />
<polygon points="679.64,650.36 586.44,634.71 646.60,561.82" fill="#080B19" opacity="0.860" stroke="#FF16D4" stroke-width="5.28" stroke-linejoin="round" stroke-linecap="round" />
<polygon points="600.79,710.40 524.23,655.00 610.49,616.40" fill="#080B19" opacity="0.860" stroke="#FF16D4" stroke-width="5.28" stroke-linejoin="round" stroke-linecap="round" />
</g>
<g transform="translate(3072.00 1024.00)">
<polygon points="472.40,283.20 588.56,512.00 472.40,740.80 356.24,512.00" fill="#050713" opacity="0.940" stroke="#00F2FF" stroke-width="11.44" stroke-linejoin="round" stroke-linecap="round" />
<line x1="472.40" y1="375.60" x2="472.40" y2="648.40" stroke="#F7FFFF" stroke-width="22.53" opacity="0.160" stroke-linecap="round"/>
<line x1="472.40" y1="375.60" x2="472.40" y2="648.40" stroke="#F7FFFF" stroke-width="7.04" opacity="0.920" stroke-linecap="round"/>
<line x1="472.40" y1="375.60" x2="472.40" y2="648.40" stroke="#F7FFFF" stroke-width="2.25" opacity="0.920" stroke-linecap="round"/>
<polygon points="626.40,512.00 574.58,422.24 678.22,422.24" fill="#080B19" opacity="0.860" stroke="#FF16D4" stroke-width="5.28" stroke-linejoin="round" stroke-linecap="round" />
<polygon points="705.60,571.84 653.78,482.08 757.42,482.08" fill="#080B19" opacity="0.860" stroke="#FF16D4" stroke-width="5.28" stroke-linejoin="round" stroke-linecap="round" />
<polygon points="776.00,631.68 724.18,541.92 827.82,541.92" fill="#080B19" opacity="0.860" stroke="#FF16D4" stroke-width="5.28" stroke-linejoin="round" stroke-linecap="round" />
</g>
<g transform="translate(4096.00 1024.00)">
<polygon points="547.20,476.80 463.37,331.60 631.03,331.60" fill="#050713" opacity="0.920" stroke="#FF7A1A" stroke-width="8.80" stroke-linejoin="round" stroke-linecap="round" />
<line x1="248.00" y1="452.60" x2="591.20" y2="380.00" stroke="#F7FFFF" stroke-width="16.90" opacity="0.160" stroke-linecap="round"/>
<line x1="248.00" y1="452.60" x2="591.20" y2="380.00" stroke="#F7FFFF" stroke-width="5.28" opacity="0.920" stroke-linecap="round"/>
<polygon points="547.20,608.80 463.37,463.60 631.03,463.60" fill="#050713" opacity="0.920" stroke="#00F2FF" stroke-width="8.80" stroke-linejoin="round" stroke-linecap="round" />
<line x1="248.00" y1="512.00" x2="591.20" y2="512.00" stroke="#F7FFFF" stroke-width="16.90" opacity="0.160" stroke-linecap="round"/>
<line x1="248.00" y1="512.00" x2="591.20" y2="512.00" stroke="#F7FFFF" stroke-width="5.28" opacity="0.920" stroke-linecap="round"/>
<polygon points="547.20,740.80 463.37,595.60 631.03,595.60" fill="#050713" opacity="0.920" stroke="#FF7A1A" stroke-width="8.80" stroke-linejoin="round" stroke-linecap="round" />
<line x1="248.00" y1="571.40" x2="591.20" y2="644.00" stroke="#F7FFFF" stroke-width="16.90" opacity="0.160" stroke-linecap="round"/>
<line x1="248.00" y1="571.40" x2="591.20" y2="644.00" stroke="#F7FFFF" stroke-width="5.28" opacity="0.920" stroke-linecap="round"/>
</g>
<g transform="translate(0.00 2048.00)">
<polygon points="533.57,480.32 428.40,541.04 323.23,480.32 323.23,358.88 428.40,298.16 533.57,358.88" fill="#050713" opacity="0.950" stroke="#FF7A1A" stroke-width="12.32" stroke-linejoin="round" stroke-linecap="round" />
<path d="M 283.2 670.4 Q 512.0 256.8 740.8 617.6" fill="none" opacity="0.700" stroke="#00F2FF" stroke-width="12.32" stroke-linejoin="round" stroke-linecap="round"/>
<polygon points="813.76,621.12 784.80,637.84 755.84,621.12 755.84,587.68 784.80,570.96 813.76,587.68" fill="#080B19" opacity="0.820" stroke="#00F2FF" stroke-width="3.52" stroke-linejoin="round" stroke-linecap="round" />
<polygon points="769.76,697.33 740.80,714.05 711.84,697.33 711.84,663.89 740.80,647.17 769.76,663.89" fill="#080B19" opacity="0.820" stroke="#00F2FF" stroke-width="3.52" stroke-linejoin="round" stroke-linecap="round" />
<polygon points="681.76,697.33 652.80,714.05 623.84,697.33 623.84,663.89 652.80,647.17 681.76,663.89" fill="#080B19" opacity="0.820" stroke="#00F2FF" stroke-width="3.52" stroke-linejoin="round" stroke-linecap="round" />
<polygon points="637.76,621.12 608.80,637.84 579.84,621.12 579.84,587.68 608.80,570.96 637.76,587.68" fill="#080B19" opacity="0.820" stroke="#00F2FF" stroke-width="3.52" stroke-linejoin="round" stroke-linecap="round" />
<polygon points="681.76,544.91 652.80,561.63 623.84,544.91 623.84,511.47 652.80,494.75 681.76,511.47" fill="#080B19" opacity="0.820" stroke="#00F2FF" stroke-width="3.52" stroke-linejoin="round" stroke-linecap="round" />
<polygon points="769.76,544.91 740.80,561.63 711.84,544.91 711.84,511.47 740.80,494.75 769.76,511.47" fill="#080B19" opacity="0.820" stroke="#00F2FF" stroke-width="3.52" stroke-linejoin="round" stroke-linecap="round" />
</g>
<g transform="translate(1024.00 2048.00)">
<line x1="195.20" y1="512.00" x2="732.00" y2="512.00" stroke="#00F2FF" stroke-width="45.06" opacity="0.160" stroke-linecap="round"/>
<line x1="195.20" y1="512.00" x2="732.00" y2="512.00" stroke="#00F2FF" stroke-width="14.08" opacity="0.920" stroke-linecap="round"/>
<line x1="195.20" y1="512.00" x2="732.00" y2="512.00" stroke="#F7FFFF" stroke-width="4.51" opacity="0.920" stroke-linecap="round"/>
<polygon points="732.00,406.40 850.80,512.00 732.00,617.60" fill="#050713" opacity="0.960" stroke="#F7FFFF" stroke-width="8.80" stroke-linejoin="round" stroke-linecap="round" />
<line x1="283.20" y1="446.88" x2="661.60" y2="446.88" stroke="#198DFF" stroke-width="16.90" opacity="0.160" stroke-linecap="round"/>
<line x1="283.20" y1="446.88" x2="661.60" y2="446.88" stroke="#198DFF" stroke-width="5.28" opacity="0.920" stroke-linecap="round"/>
<line x1="283.20" y1="446.88" x2="661.60" y2="446.88" stroke="#F7FFFF" stroke-width="2.00" opacity="0.920" stroke-linecap="round"/>
</g>
<g transform="translate(2048.00 2048.00)">
<circle cx="512.00" cy="512.00" r="246.40" fill="none" opacity="0.460" stroke="#00F2FF" stroke-width="10.56"/>
<circle cx="727.60" cy="512.00" r="54.56" fill="none" opacity="0.780" stroke="#FF7A1A" stroke-width="8.80"/>
<polygon points="796.24,512.00 693.28,571.44 693.28,452.56" fill="#050713" opacity="0.860" stroke="#FF16D4" stroke-width="4.40" stroke-linejoin="round" stroke-linecap="round" />
<circle cx="619.80" cy="698.72" r="54.56" fill="none" opacity="0.780" stroke="#FF7A1A" stroke-width="8.80"/>
<polygon points="654.12,758.16 551.16,698.72 654.12,639.27" fill="#050713" opacity="0.860" stroke="#FF16D4" stroke-width="4.40" stroke-linejoin="round" stroke-linecap="round" />
<circle cx="404.20" cy="698.72" r="54.56" fill="none" opacity="0.780" stroke="#FF7A1A" stroke-width="8.80"/>
<polygon points="369.88,758.16 369.88,639.27 472.84,698.72" fill="#050713" opacity="0.860" stroke="#FF16D4" stroke-width="4.40" stroke-linejoin="round" stroke-linecap="round" />
<circle cx="296.40" cy="512.00" r="54.56" fill="none" opacity="0.780" stroke="#FF7A1A" stroke-width="8.80"/>
<polygon points="227.76,512.00 330.72,452.56 330.72,571.44" fill="#050713" opacity="0.860" stroke="#FF16D4" stroke-width="4.40" stroke-linejoin="round" stroke-linecap="round" />
<circle cx="404.20" cy="325.28" r="54.56" fill="none" opacity="0.780" stroke="#FF7A1A" stroke-width="8.80"/>
<polygon points="369.88,265.84 472.84,325.28 369.88,384.73" fill="#050713" opacity="0.860" stroke="#FF16D4" stroke-width="4.40" stroke-linejoin="round" stroke-linecap="round" />
<circle cx="619.80" cy="325.28" r="54.56" fill="none" opacity="0.780" stroke="#FF7A1A" stroke-width="8.80"/>
<polygon points="654.12,265.84 654.12,384.73 551.16,325.28" fill="#050713" opacity="0.860" stroke="#FF16D4" stroke-width="4.40" stroke-linejoin="round" stroke-linecap="round" />
</g>
<g transform="translate(3072.00 2048.00)">
<line x1="239.20" y1="608.80" x2="384.40" y2="428.40" stroke="#00F2FF" stroke-width="45.06" opacity="0.160" stroke-linecap="round"/>
<line x1="239.20" y1="608.80" x2="384.40" y2="428.40" stroke="#00F2FF" stroke-width="14.08" opacity="0.920" stroke-linecap="round"/>
<line x1="239.20" y1="608.80" x2="384.40" y2="428.40" stroke="#F7FFFF" stroke-width="4.51" opacity="0.920" stroke-linecap="round"/>
<line x1="384.40" y1="428.40" x2="564.80" y2="586.80" stroke="#00F2FF" stroke-width="45.06" opacity="0.160" stroke-linecap="round"/>
<line x1="384.40" y1="428.40" x2="564.80" y2="586.80" stroke="#00F2FF" stroke-width="14.08" opacity="0.920" stroke-linecap="round"/>
<line x1="384.40" y1="428.40" x2="564.80" y2="586.80" stroke="#F7FFFF" stroke-width="4.51" opacity="0.920" stroke-linecap="round"/>
<line x1="564.80" y1="586.80" x2="762.80" y2="410.80" stroke="#00F2FF" stroke-width="45.06" opacity="0.160" stroke-linecap="round"/>
<line x1="564.80" y1="586.80" x2="762.80" y2="410.80" stroke="#00F2FF" stroke-width="14.08" opacity="0.920" stroke-linecap="round"/>
<line x1="564.80" y1="586.80" x2="762.80" y2="410.80" stroke="#F7FFFF" stroke-width="4.51" opacity="0.920" stroke-linecap="round"/>
<polygon points="239.20,545.44 293.76,608.80 239.20,672.16 184.64,608.80" fill="#050713" opacity="0.910" stroke="#FF16D4" stroke-width="6.16" stroke-linejoin="round" stroke-linecap="round" />
<polygon points="384.40,365.04 438.96,428.40 384.40,491.76 329.84,428.40" fill="#050713" opacity="0.910" stroke="#FF16D4" stroke-width="6.16" stroke-linejoin="round" stroke-linecap="round" />
<polygon points="564.80,523.44 619.36,586.80 564.80,650.16 510.24,586.80" fill="#050713" opacity="0.910" stroke="#FF16D4" stroke-width="6.16" stroke-linejoin="round" stroke-linecap="round" />
<polygon points="762.80,347.44 817.36,410.80 762.80,474.16 708.24,410.80" fill="#050713" opacity="0.910" stroke="#FF16D4" stroke-width="6.16" stroke-linejoin="round" stroke-linecap="round" />
</g>
<g transform="translate(4096.00 2048.00)">
<circle cx="512.00" cy="512.00" r="61.60" fill="#050713" opacity="0.980" stroke="#F7FFFF" stroke-width="7.92"/>
<circle cx="512.00" cy="512.00" r="154.00" fill="none" opacity="0.620" stroke="#FF16D4" stroke-width="19.36"/>
<circle cx="512.00" cy="512.00" r="268.40" fill="none" opacity="0.460" stroke="#00F2FF" stroke-width="10.56"/>
<path d="M 292.0 459.2 C 406.4 283.2 670.4 344.8 727.6 538.4" fill="none" opacity="0.640" stroke="#9854FF" stroke-width="9.68" stroke-linejoin="round" stroke-linecap="round"/>
</g>
<g transform="translate(0.00 3072.00)">
<line x1="265.60" y1="384.40" x2="758.40" y2="322.80" stroke="#00F2FF" stroke-width="25.34" opacity="0.160" stroke-linecap="round"/>
<line x1="265.60" y1="384.40" x2="758.40" y2="322.80" stroke="#00F2FF" stroke-width="7.92" opacity="0.920" stroke-linecap="round"/>
<line x1="265.60" y1="384.40" x2="758.40" y2="322.80" stroke="#F7FFFF" stroke-width="2.53" opacity="0.920" stroke-linecap="round"/>
<polygon points="789.20,274.40 813.84,320.16 789.20,365.92 764.56,320.16" fill="#050713" opacity="0.900" stroke="#00F2FF" stroke-width="3.52" stroke-linejoin="round" stroke-linecap="round" />
<line x1="265.60" y1="463.60" x2="758.40" y2="402.00" stroke="#F7FFFF" stroke-width="25.34" opacity="0.160" stroke-linecap="round"/>
<line x1="265.60" y1="463.60" x2="758.40" y2="402.00" stroke="#F7FFFF" stroke-width="7.92" opacity="0.920" stroke-linecap="round"/>
<line x1="265.60" y1="463.60" x2="758.40" y2="402.00" stroke="#F7FFFF" stroke-width="2.53" opacity="0.920" stroke-linecap="round"/>
<polygon points="789.20,353.60 813.84,399.36 789.20,445.12 764.56,399.36" fill="#050713" opacity="0.900" stroke="#00F2FF" stroke-width="3.52" stroke-linejoin="round" stroke-linecap="round" />
<line x1="265.60" y1="542.80" x2="758.40" y2="481.20" stroke="#00F2FF" stroke-width="25.34" opacity="0.160" stroke-linecap="round"/>
<line x1="265.60" y1="542.80" x2="758.40" y2="481.20" stroke="#00F2FF" stroke-width="7.92" opacity="0.920" stroke-linecap="round"/>
<line x1="265.60" y1="542.80" x2="758.40" y2="481.20" stroke="#F7FFFF" stroke-width="2.53" opacity="0.920" stroke-linecap="round"/>
<polygon points="789.20,432.80 813.84,478.56 789.20,524.32 764.56,478.56" fill="#050713" opacity="0.900" stroke="#00F2FF" stroke-width="3.52" stroke-linejoin="round" stroke-linecap="round" />
<line x1="265.60" y1="622.00" x2="758.40" y2="560.40" stroke="#F7FFFF" stroke-width="25.34" opacity="0.160" stroke-linecap="round"/>
<line x1="265.60" y1="622.00" x2="758.40" y2="560.40" stroke="#F7FFFF" stroke-width="7.92" opacity="0.920" stroke-linecap="round"/>
<line x1="265.60" y1="622.00" x2="758.40" y2="560.40" stroke="#F7FFFF" stroke-width="2.53" opacity="0.920" stroke-linecap="round"/>
<polygon points="789.20,512.00 813.84,557.76 789.20,603.52 764.56,557.76" fill="#050713" opacity="0.900" stroke="#00F2FF" stroke-width="3.52" stroke-linejoin="round" stroke-linecap="round" />
<line x1="265.60" y1="701.20" x2="758.40" y2="639.60" stroke="#00F2FF" stroke-width="25.34" opacity="0.160" stroke-linecap="round"/>
<line x1="265.60" y1="701.20" x2="758.40" y2="639.60" stroke="#00F2FF" stroke-width="7.92" opacity="0.920" stroke-linecap="round"/>
<line x1="265.60" y1="701.20" x2="758.40" y2="639.60" stroke="#F7FFFF" stroke-width="2.53" opacity="0.920" stroke-linecap="round"/>
<polygon points="789.20,591.20 813.84,636.96 789.20,682.72 764.56,636.96" fill="#050713" opacity="0.900" stroke="#00F2FF" stroke-width="3.52" stroke-linejoin="round" stroke-linecap="round" />
</g>
<g transform="translate(1024.00 3072.00)">
<polygon points="459.20,276.16 564.37,458.32 354.03,458.32" fill="#050713" opacity="0.940" stroke="#00F2FF" stroke-width="9.68" stroke-linejoin="round" stroke-linecap="round" />
<polygon points="635.62,475.30 632.03,551.42 567.90,510.24" fill="#080B19" opacity="0.840" stroke="#FF7A1A" stroke-width="4.40" stroke-linejoin="round" stroke-linecap="round" />
<polygon points="679.41,504.83 657.09,577.70 605.15,521.94" fill="#080B19" opacity="0.840" stroke="#FF16D4" stroke-width="4.40" stroke-linejoin="round" stroke-linecap="round" />
<polygon points="712.79,542.20 673.14,607.28 636.60,540.40" fill="#080B19" opacity="0.840" stroke="#FF7A1A" stroke-width="4.40" stroke-linejoin="round" stroke-linecap="round" />
<polygon points="733.69,585.08 679.17,638.33 660.31,564.49" fill="#080B19" opacity="0.840" stroke="#FF16D4" stroke-width="4.40" stroke-linejoin="round" stroke-linecap="round" />
<polygon points="740.80,630.80 674.80,668.91 674.80,592.69" fill="#080B19" opacity="0.840" stroke="#FF7A1A" stroke-width="4.40" stroke-linejoin="round" stroke-linecap="round" />
<polygon points="733.69,676.52 660.31,697.11 679.17,623.27" fill="#080B19" opacity="0.840" stroke="#FF16D4" stroke-width="4.40" stroke-linejoin="round" stroke-linecap="round" />
<polygon points="712.79,719.40 636.60,721.20 673.14,654.32" fill="#080B19" opacity="0.840" stroke="#FF7A1A" stroke-width="4.40" stroke-linejoin="round" stroke-linecap="round" />
<polygon points="679.41,756.77 605.15,739.66 657.09,683.90" fill="#080B19" opacity="0.840" stroke="#FF16D4" stroke-width="4.40" stroke-linejoin="round" stroke-linecap="round" />
<polygon points="635.62,786.30 567.90,751.36 632.03,710.18" fill="#080B19" opacity="0.840" stroke="#FF7A1A" stroke-width="4.40" stroke-linejoin="round" stroke-linecap="round" />
</g>
<g transform="translate(2048.00 3072.00)">
<polygon points="512.00,239.20 714.40,512.00 512.00,784.80 309.60,512.00" fill="#050713" opacity="0.960" stroke="#FF7A1A" stroke-width="14.08" stroke-linejoin="round" stroke-linecap="round" />
<line x1="318.40" y1="512.00" x2="705.60" y2="512.00" stroke="#F7FFFF" stroke-width="33.79" opacity="0.160" stroke-linecap="round"/>
<line x1="318.40" y1="512.00" x2="705.60" y2="512.00" stroke="#F7FFFF" stroke-width="10.56" opacity="0.920" stroke-linecap="round"/>
<line x1="318.40" y1="512.00" x2="705.60" y2="512.00" stroke="#F7FFFF" stroke-width="3.38" opacity="0.920" stroke-linecap="round"/>
<line x1="512.00" y1="309.60" x2="512.00" y2="714.40" stroke="#00F2FF" stroke-width="19.71" opacity="0.160" stroke-linecap="round"/>
<line x1="512.00" y1="309.60" x2="512.00" y2="714.40" stroke="#00F2FF" stroke-width="6.16" opacity="0.920" stroke-linecap="round"/>
<line x1="512.00" y1="309.60" x2="512.00" y2="714.40" stroke="#F7FFFF" stroke-width="2.00" opacity="0.920" stroke-linecap="round"/>
</g>
<g transform="translate(3072.00 3072.00)">
<line x1="595.60" y1="512.00" x2="811.20" y2="512.00" stroke="#00F2FF" stroke-width="25.34" opacity="0.160" stroke-linecap="round"/>
<line x1="595.60" y1="512.00" x2="811.20" y2="512.00" stroke="#00F2FF" stroke-width="7.92" opacity="0.920" stroke-linecap="round"/>
<line x1="595.60" y1="512.00" x2="811.20" y2="512.00" stroke="#F7FFFF" stroke-width="2.53" opacity="0.920" stroke-linecap="round"/>
<line x1="584.40" y1="553.80" x2="771.11" y2="661.60" stroke="#FF16D4" stroke-width="25.34" opacity="0.160" stroke-linecap="round"/>
<line x1="584.40" y1="553.80" x2="771.11" y2="661.60" stroke="#FF16D4" stroke-width="7.92" opacity="0.920" stroke-linecap="round"/>
<line x1="584.40" y1="553.80" x2="771.11" y2="661.60" stroke="#F7FFFF" stroke-width="2.53" opacity="0.920" stroke-linecap="round"/>
<line x1="553.80" y1="584.40" x2="661.60" y2="771.11" stroke="#00F2FF" stroke-width="25.34" opacity="0.160" stroke-linecap="round"/>
<line x1="553.80" y1="584.40" x2="661.60" y2="771.11" stroke="#00F2FF" stroke-width="7.92" opacity="0.920" stroke-linecap="round"/>
<line x1="553.80" y1="584.40" x2="661.60" y2="771.11" stroke="#F7FFFF" stroke-width="2.53" opacity="0.920" stroke-linecap="round"/>
<line x1="512.00" y1="595.60" x2="512.00" y2="811.20" stroke="#FF16D4" stroke-width="25.34" opacity="0.160" stroke-linecap="round"/>
<line x1="512.00" y1="595.60" x2="512.00" y2="811.20" stroke="#FF16D4" stroke-width="7.92" opacity="0.920" stroke-linecap="round"/>
<line x1="512.00" y1="595.60" x2="512.00" y2="811.20" stroke="#F7FFFF" stroke-width="2.53" opacity="0.920" stroke-linecap="round"/>
<line x1="470.20" y1="584.40" x2="362.40" y2="771.11" stroke="#00F2FF" stroke-width="25.34" opacity="0.160" stroke-linecap="round"/>
<line x1="470.20" y1="584.40" x2="362.40" y2="771.11" stroke="#00F2FF" stroke-width="7.92" opacity="0.920" stroke-linecap="round"/>
<line x1="470.20" y1="584.40" x2="362.40" y2="771.11" stroke="#F7FFFF" stroke-width="2.53" opacity="0.920" stroke-linecap="round"/>
<line x1="439.60" y1="553.80" x2="252.89" y2="661.60" stroke="#FF16D4" stroke-width="25.34" opacity="0.160" stroke-linecap="round"/>
<line x1="439.60" y1="553.80" x2="252.89" y2="661.60" stroke="#FF16D4" stroke-width="7.92" opacity="0.920" stroke-linecap="round"/>
<line x1="439.60" y1="553.80" x2="252.89" y2="661.60" stroke="#F7FFFF" stroke-width="2.53" opacity="0.920" stroke-linecap="round"/>
<line x1="428.40" y1="512.00" x2="212.80" y2="512.00" stroke="#00F2FF" stroke-width="25.34" opacity="0.160" stroke-linecap="round"/>
<line x1="428.40" y1="512.00" x2="212.80" y2="512.00" stroke="#00F2FF" stroke-width="7.92" opacity="0.920" stroke-linecap="round"/>
<line x1="428.40" y1="512.00" x2="212.80" y2="512.00" stroke="#F7FFFF" stroke-width="2.53" opacity="0.920" stroke-linecap="round"/>
<line x1="439.60" y1="470.20" x2="252.89" y2="362.40" stroke="#FF16D4" stroke-width="25.34" opacity="0.160" stroke-linecap="round"/>
<line x1="439.60" y1="470.20" x2="252.89" y2="362.40" stroke="#FF16D4" stroke-width="7.92" opacity="0.920" stroke-linecap="round"/>
<line x1="439.60" y1="470.20" x2="252.89" y2="362.40" stroke="#F7FFFF" stroke-width="2.53" opacity="0.920" stroke-linecap="round"/>
<line x1="470.20" y1="439.60" x2="362.40" y2="252.89" stroke="#00F2FF" stroke-width="25.34" opacity="0.160" stroke-linecap="round"/>
<line x1="470.20" y1="439.60" x2="362.40" y2="252.89" stroke="#00F2FF" stroke-width="7.92" opacity="0.920" stroke-linecap="round"/>
<line x1="470.20" y1="439.60" x2="362.40" y2="252.89" stroke="#F7FFFF" stroke-width="2.53" opacity="0.920" stroke-linecap="round"/>
<line x1="512.00" y1="428.40" x2="512.00" y2="212.80" stroke="#FF16D4" stroke-width="25.34" opacity="0.160" stroke-linecap="round"/>
<line x1="512.00" y1="428.40" x2="512.00" y2="212.80" stroke="#FF16D4" stroke-width="7.92" opacity="0.920" stroke-linecap="round"/>
<line x1="512.00" y1="428.40" x2="512.00" y2="212.80" stroke="#F7FFFF" stroke-width="2.53" opacity="0.920" stroke-linecap="round"/>
<line x1="553.80" y1="439.60" x2="661.60" y2="252.89" stroke="#00F2FF" stroke-width="25.34" opacity="0.160" stroke-linecap="round"/>
<line x1="553.80" y1="439.60" x2="661.60" y2="252.89" stroke="#00F2FF" stroke-width="7.92" opacity="0.920" stroke-linecap="round"/>
<line x1="553.80" y1="439.60" x2="661.60" y2="252.89" stroke="#F7FFFF" stroke-width="2.53" opacity="0.920" stroke-linecap="round"/>
<line x1="584.40" y1="470.20" x2="771.11" y2="362.40" stroke="#FF16D4" stroke-width="25.34" opacity="0.160" stroke-linecap="round"/>
<line x1="584.40" y1="470.20" x2="771.11" y2="362.40" stroke="#FF16D4" stroke-width="7.92" opacity="0.920" stroke-linecap="round"/>
<line x1="584.40" y1="470.20" x2="771.11" y2="362.40" stroke="#F7FFFF" stroke-width="2.53" opacity="0.920" stroke-linecap="round"/>
<circle cx="512.00" cy="512.00" r="103.84" fill="none" opacity="0.820" stroke="#F7FFFF" stroke-width="7.92"/>
<circle cx="512.00" cy="512.00" r="45.76" fill="#F7FFFF" opacity="0.930" stroke="#FF7A1A" stroke-width="5.28"/>
</g>
<g transform="translate(4096.00 3072.00)">
<circle cx="512.00" cy="512.00" r="220.00" fill="none" opacity="0.700" stroke="#00F2FF" stroke-width="15.84"/>
<polygon points="512.00,358.00 630.80,512.00 512.00,666.00 393.20,512.00" fill="#050713" opacity="0.920" stroke="#FF16D4" stroke-width="8.80" stroke-linejoin="round" stroke-linecap="round" />
<line x1="402.00" y1="402.00" x2="622.00" y2="622.00" stroke="#F7FFFF" stroke-width="22.53" opacity="0.160" stroke-linecap="round"/>
<line x1="402.00" y1="402.00" x2="622.00" y2="622.00" stroke="#F7FFFF" stroke-width="7.04" opacity="0.920" stroke-linecap="round"/>
<line x1="402.00" y1="402.00" x2="622.00" y2="622.00" stroke="#F7FFFF" stroke-width="2.25" opacity="0.920" stroke-linecap="round"/>
</g>
</svg>
