<?xml version="1.0" encoding="UTF-8" standalone="no"?>
<svg xmlns="http://www.w3.org/2000/svg" width="4096" height="4096" viewBox="0 0 4096 4096" version="1.1">
<defs>
<radialGradient id="bg" cx="50%" cy="44%" r="72%">
<stop offset="0%" stop-color="#061d3f" stop-opacity="1"/>
<stop offset="62%" stop-color="#020a18" stop-opacity="1"/>
<stop offset="100%" stop-color="#000207" stop-opacity="1"/>
</radialGradient>
<linearGradient id="depthFade" x1="0%" y1="0%" x2="0%" y2="100%">
<stop offset="0%" stop-color="#ffffff" stop-opacity="0.18"/>
<stop offset="48%" stop-color="#ffffff" stop-opacity="0.05"/>
<stop offset="100%" stop-color="#000000" stop-opacity="0.42"/>
</linearGradient>
<filter id="softGlow" x="-35%" y="-35%" width="170%" height="170%">
<feGaussianBlur stdDeviation="18" result="blur"/>
<feMerge><feMergeNode in="blur"/><feMergeNode in="SourceGraphic"/></feMerge>
</filter>
<filter id="hardGlow" x="-45%" y="-45%" width="190%" height="190%">
<feGaussianBlur stdDeviation="7" result="blur"/>
<feMerge><feMergeNode in="blur"/><feMergeNode in="SourceGraphic"/></feMerge>
</filter>
<filter id="plateShadow" x="-20%" y="-20%" width="140%" height="140%">
<feDropShadow dx="0" dy="34" stdDeviation="34" flood-color="#000000" flood-opacity="0.62"/>
</filter>
</defs>
<rect x="0" y="0" width="4096" height="4096" fill="url(#bg)"/>
<rect x="0" y="0" width="4096" height="4096" fill="url(#depthFade)" opacity="0.72"/>
<polygon points="340.0,340.0 3756.0,340.0 3756.0,3756.0 340.0,3756.0" fill="#020814" fill-opacity="0.200" stroke="#00c8ff" stroke-width="26.0" stroke-opacity="0.620" stroke-linejoin="round" filter="url(#hardGlow)"/>
<polygon points="340.0,340.0 3756.0,340.0 3756.0,3756.0 340.0,3756.0" fill="none" fill-opacity="0.000" stroke="#eaffff" stroke-width="6.0" stroke-opacity="0.380" stroke-linejoin="round"/>
<polygon points="485.0,485.0 3611.0,485.0 3611.0,3611.0 485.0,3611.0" fill="none" fill-opacity="0.000" stroke="#00c8ff" stroke-width="7.0" stroke-opacity="0.180" stroke-linejoin="round"/>
<polygon points="585.0,585.0 3511.0,585.0 3511.0,3511.0 585.0,3511.0" fill="none" fill-opacity="0.000" stroke="#00c8ff" stroke-width="7.0" stroke-opacity="0.180" stroke-linejoin="round"/>
<line x1="520.0" y1="520.0" x2="520.0" y2="3576.0" stroke="#00c8ff" stroke-width="7.0" stroke-opacity="0.340" stroke-linecap="round"/>
<line x1="744.0" y1="520.0" x2="744.0" y2="3576.0" stroke="#0d66ff" stroke-width="4.0" stroke-opacity="0.160" stroke-linecap="round"/>
<line x1="968.0" y1="520.0" x2="968.0" y2="3576.0" stroke="#0d66ff" stroke-width="4.0" stroke-opacity="0.160" stroke-linecap="round"/>
<line x1="1192.0" y1="520.0" x2="1192.0" y2="3576.0" stroke="#0d66ff" stroke-width="4.0" stroke-opacity="0.160" stroke-linecap="round"/>
<line x1="1416.0" y1="520.0" x2="1416.0" y2="3576.0" stroke="#00c8ff" stroke-width="7.0" stroke-opacity="0.340" stroke-linecap="round"/>
<line x1="1640.0" y1="520.0" x2="1640.0" y2="3576.0" stroke="#0d66ff" stroke-width="4.0" stroke-opacity="0.160" stroke-linecap="round"/>
<line x1="1864.0" y1="520.0" x2="1864.0" y2="3576.0" stroke="#0d66ff" stroke-width="4.0" stroke-opacity="0.160" stroke-linecap="round"/>
<line x1="2088.0" y1="520.0" x2="2088.0" y2="3576.0" stroke="#0d66ff" stroke-width="4.0" stroke-opacity="0.160" stroke-linecap="round"/>
<line x1="2312.0" y1="520.0" x2="2312.0" y2="3576.0" stroke="#00c8ff" stroke-width="7.0" stroke-opacity="0.340" stroke-linecap="round"/>
<line x1="2536.0" y1="520.0" x2="2536.0" y2="3576.0" stroke="#0d66ff" stroke-width="4.0" stroke-opacity="0.160" stroke-linecap="round"/>
<line x1="2760.0" y1="520.0" x2="2760.0" y2="3576.0" stroke="#0d66ff" stroke-width="4.0" stroke-opacity="0.160" stroke-linecap="round"/>
<line x1="2984.0" y1="520.0" x2="2984.0" y2="3576.0" stroke="#0d66ff" stroke-width="4.0" stroke-opacity="0.160" stroke-linecap="round"/>
<line x1="3208.0" y1="520.0" x2="3208.0" y2="3576.0" stroke="#00c8ff" stroke-width="7.0" stroke-opacity="0.340" stroke-linecap="round"/>
<line x1="3432.0" y1="520.0" x2="3432.0" y2="3576.0" stroke="#0d66ff" stroke-width="4.0" stroke-opacity="0.160" stroke-linecap="round"/>
<line x1="520.0" y1="520.0" x2="3576.0" y2="520.0" stroke="#00c8ff" stroke-width="7.0" stroke-opacity="0.350" stroke-linecap="round"/>
<line x1="520.0" y1="744.0" x2="3576.0" y2="744.0" stroke="#0d66ff" stroke-width="4.0" stroke-opacity="0.150" stroke-linecap="round"/>
<line x1="520.0" y1="968.0" x2="3576.0" y2="968.0" stroke="#0d66ff" stroke-width="4.0" stroke-opacity="0.150" stroke-linecap="round"/>
<line x1="520.0" y1="1192.0" x2="3576.0" y2="1192.0" stroke="#0d66ff" stroke-width="4.0" stroke-opacity="0.150" stroke-linecap="round"/>
<line x1="520.0" y1="1416.0" x2="3576.0" y2="1416.0" stroke="#00c8ff" stroke-width="7.0" stroke-opacity="0.350" stroke-linecap="round"/>
<line x1="520.0" y1="1640.0" x2="3576.0" y2="1640.0" stroke="#0d66ff" stroke-width="4.0" stroke-opacity="0.150" stroke-linecap="round"/>
<line x1="520.0" y1="1864.0" x2="3576.0" y2="1864.0" stroke="#0d66ff" stroke-width="4.0" stroke-opacity="0.150" stroke-linecap="round"/>
<line x1="520.0" y1="2088.0" x2="3576.0" y2="2088.0" stroke="#0d66ff" stroke-width="4.0" stroke-opacity="0.150" stroke-linecap="round"/>
<line x1="520.0" y1="2312.0" x2="3576.0" y2="2312.0" stroke="#00c8ff" stroke-width="7.0" stroke-opacity="0.350" stroke-linecap="round"/>
<line x1="520.0" y1="2536.0" x2="3576.0" y2="2536.0" stroke="#0d66ff" stroke-width="4.0" stroke-opacity="0.150" stroke-linecap="round"/>
<line x1="520.0" y1="2760.0" x2="3576.0" y2="2760.0" stroke="#0d66ff" stroke-width="4.0" stroke-opacity="0.150" stroke-linecap="round"/>
<line x1="520.0" y1="2984.0" x2="3576.0" y2="2984.0" stroke="#0d66ff" stroke-width="4.0" stroke-opacity="0.150" stroke-linecap="round"/>
<line x1="520.0" y1="3208.0" x2="3576.0" y2="3208.0" stroke="#00c8ff" stroke-width="7.0" stroke-opacity="0.350" stroke-linecap="round"/>
<line x1="520.0" y1="3432.0" x2="3576.0" y2="3432.0" stroke="#0d66ff" stroke-width="4.0" stroke-opacity="0.150" stroke-linecap="round"/>
<polygon points="1328.0,1328.0 2768.0,1328.0 2768.0,2768.0 1328.0,2768.0" fill="none" fill-opacity="0.000" stroke="#00c8ff" stroke-width="13.0" stroke-opacity="0.480" stroke-linejoin="round" filter="url(#hardGlow)"/>
<polygon points="1328.0,1328.0 2768.0,1328.0 2768.0,2768.0 1328.0,2768.0" fill="none" fill-opacity="0.000" stroke="#eaffff" stroke-width="4.0" stroke-opacity="0.340" stroke-linejoin="round"/>
<polygon points="1008.0,1008.0 3088.0,1008.0 3088.0,3088.0 1008.0,3088.0" fill="none" fill-opacity="0.000" stroke="#00c8ff" stroke-width="13.0" stroke-opacity="0.480" stroke-linejoin="round" filter="url(#hardGlow)"/>
<polygon points="1008.0,1008.0 3088.0,1008.0 3088.0,3088.0 1008.0,3088.0" fill="none" fill-opacity="0.000" stroke="#eaffff" stroke-width="4.0" stroke-opacity="0.340" stroke-linejoin="round"/>
<polygon points="688.0,688.0 3408.0,688.0 3408.0,3408.0 688.0,3408.0" fill="none" fill-opacity="0.000" stroke="#00c8ff" stroke-width="13.0" stroke-opacity="0.480" stroke-linejoin="round" filter="url(#hardGlow)"/>
<polygon points="688.0,688.0 3408.0,688.0 3408.0,3408.0 688.0,3408.0" fill="none" fill-opacity="0.000" stroke="#eaffff" stroke-width="4.0" stroke-opacity="0.340" stroke-linejoin="round"/>
<polyline points="1376.0,3280.0 1376.0,2460.0 1600.0,2460.0 1600.0,1660.0 1376.0,1660.0 1376.0,820.0" fill="none" stroke="#eaffff" stroke-width="9.0" stroke-opacity="0.560" stroke-linejoin="round" stroke-linecap="round" filter="url(#hardGlow)"/>
<polyline points="1824.0,3280.0 1824.0,2460.0 2048.0,2460.0 2048.0,1660.0 1824.0,1660.0 1824.0,820.0" fill="none" stroke="#eaffff" stroke-width="9.0" stroke-opacity="0.560" stroke-linejoin="round" stroke-linecap="round" filter="url(#hardGlow)"/>
<polyline points="2272.0,3280.0 2272.0,2460.0 2496.0,2460.0 2496.0,1660.0 2272.0,1660.0 2272.0,820.0" fill="none" stroke="#eaffff" stroke-width="9.0" stroke-opacity="0.560" stroke-linejoin="round" stroke-linecap="round" filter="url(#hardGlow)"/>
<polyline points="2720.0,3280.0 2720.0,2460.0 2944.0,2460.0 2944.0,1660.0 2720.0,1660.0 2720.0,820.0" fill="none" stroke="#eaffff" stroke-width="9.0" stroke-opacity="0.560" stroke-linejoin="round" stroke-linecap="round" filter="url(#hardGlow)"/>
<line x1="620.0" y1="1000.0" x2="3476.0" y2="1000.0" stroke="#00c8ff" stroke-width="18.0" stroke-opacity="0.110" stroke-linecap="round" filter="url(#hardGlow)"/>
<line x1="620.0" y1="1340.0" x2="3476.0" y2="1340.0" stroke="#00c8ff" stroke-width="18.0" stroke-opacity="0.110" stroke-linecap="round" filter="url(#hardGlow)"/>
<line x1="620.0" y1="1680.0" x2="3476.0" y2="1680.0" stroke="#00c8ff" stroke-width="18.0" stroke-opacity="0.110" stroke-linecap="round" filter="url(#hardGlow)"/>
<line x1="620.0" y1="2020.0" x2="3476.0" y2="2020.0" stroke="#00c8ff" stroke-width="18.0" stroke-opacity="0.110" stroke-linecap="round" filter="url(#hardGlow)"/>
<line x1="620.0" y1="2360.0" x2="3476.0" y2="2360.0" stroke="#00c8ff" stroke-width="18.0" stroke-opacity="0.110" stroke-linecap="round" filter="url(#hardGlow)"/>
<line x1="620.0" y1="2700.0" x2="3476.0" y2="2700.0" stroke="#00c8ff" stroke-width="18.0" stroke-opacity="0.110" stroke-linecap="round" filter="url(#hardGlow)"/>
<line x1="620.0" y1="3040.0" x2="3476.0" y2="3040.0" stroke="#00c8ff" stroke-width="18.0" stroke-opacity="0.110" stroke-linecap="round" filter="url(#hardGlow)"/>
</svg>